<svg width="191" height="27" viewBox="0 0 191 27" fill="none" xmlns="http://www.w3.org/2000/svg">
<path d="M3.03352 26L0.0517045 2.14545H6.42301L7.44801 17.7767H7.64602L14.3318 2.14545H19.5267L21.0642 17.8116H21.2506L27.4472 2.14545H33.8068L22.9162 26H17.3602L15.4849 11.5335H15.2986L8.57784 26H3.03352ZM32.2286 26L35.2104 8.10909H40.9061L37.9243 26H32.2286ZM38.4601 6.0125C37.6525 6.0125 36.9964 5.7446 36.4916 5.20881C35.9869 4.67301 35.7889 4.03239 35.8976 3.28693C36.0063 2.53371 36.3868 1.89309 37.0391 1.36506C37.6913 0.837027 38.4174 0.573012 39.2172 0.573012C40.0248 0.573012 40.6732 0.837027 41.1624 1.36506C41.6593 1.89309 41.8535 2.53371 41.7447 3.28693C41.6516 4.03239 41.2788 4.67301 40.6266 5.20881C39.9821 5.7446 39.2599 6.0125 38.4601 6.0125ZM43.9374 6.82784L44.7295 2.14545H64.8917L64.0996 6.82784H56.8664L53.6982 26H48.0141L51.1823 6.82784H43.9374ZM63.7473 26L67.7075 2.14545H83.9911L83.199 6.82784H72.6811L71.8891 11.7199H81.3703L80.5783 16.4139H71.097L69.5129 26H63.7473ZM87.6426 26.3028C86.5089 26.3028 85.5305 26.1126 84.7074 25.7321C83.892 25.3438 83.2941 24.7576 82.9136 23.9733C82.5409 23.189 82.4516 22.2106 82.6457 21.0381C82.8166 20.0441 83.1311 19.2094 83.5892 18.5338C84.0551 17.8505 84.6259 17.2953 85.3014 16.8682C85.9848 16.4411 86.7457 16.115 87.5844 15.8898C88.423 15.6646 89.3005 15.5132 90.2168 15.4355C91.2418 15.3423 92.0726 15.2414 92.7094 15.1327C93.3539 15.024 93.8353 14.8725 94.1537 14.6784C94.4721 14.4765 94.6662 14.197 94.7361 13.8398V13.7815C94.8293 13.1836 94.7011 12.7216 94.3517 12.3955C94.0023 12.0693 93.4781 11.9063 92.7793 11.9063C92.0338 11.9063 91.3971 12.0693 90.869 12.3955C90.341 12.7216 89.9722 13.172 89.7625 13.7466L84.5443 13.5602C84.8705 12.4731 85.4295 11.5025 86.2216 10.6483C87.0136 9.78636 88.0192 9.1108 89.2384 8.62159C90.4652 8.12462 91.8824 7.87614 93.4898 7.87614C94.6235 7.87614 95.6485 8.01203 96.5648 8.28381C97.4811 8.54782 98.2537 8.93608 98.8827 9.44858C99.5194 9.95331 99.9737 10.5745 100.245 11.3122C100.517 12.0499 100.575 12.8924 100.42 13.8398L98.3818 26H93.0239L93.4432 23.5074H93.3034C92.8841 24.1131 92.391 24.6256 91.8242 25.0449C91.2651 25.4642 90.6361 25.7787 89.9372 25.9884C89.2384 26.198 88.4735 26.3028 87.6426 26.3028ZM90.042 22.5756C90.64 22.5756 91.2068 22.4513 91.7426 22.2028C92.2784 21.9544 92.7288 21.6127 93.0938 21.1778C93.4665 20.7352 93.7033 20.2227 93.8043 19.6403L94.0722 17.9398C93.9091 18.0252 93.7033 18.1028 93.4548 18.1727C93.2063 18.2426 92.9423 18.3086 92.6628 18.3707C92.3832 18.4251 92.0959 18.4795 91.8009 18.5338C91.5135 18.5804 91.2379 18.6231 90.9739 18.6619C90.4148 18.7473 89.9295 18.8794 89.5179 19.058C89.1063 19.2366 88.7763 19.4695 88.5278 19.7568C88.2871 20.0364 88.1396 20.3703 88.0852 20.7585C87.992 21.3409 88.1279 21.7913 88.4929 22.1097C88.8579 22.4203 89.3742 22.5756 90.042 22.5756ZM119.511 13.5719L114.374 13.7116C114.382 13.3312 114.296 12.9973 114.118 12.7099C113.939 12.4149 113.687 12.1858 113.361 12.0227C113.035 11.8597 112.646 11.7781 112.196 11.7781C111.466 11.7781 110.81 11.9412 110.228 12.2673C109.653 12.5935 109.331 13.0167 109.261 13.5369C109.206 13.8165 109.284 14.0611 109.494 14.2707C109.703 14.4726 110.169 14.6512 110.891 14.8065L114.246 15.4588C115.97 15.8005 117.22 16.3945 117.997 17.2409C118.781 18.0795 119.06 19.19 118.835 20.5722C118.633 21.7525 118.113 22.7736 117.274 23.6355C116.444 24.4974 115.384 25.1652 114.095 25.6389C112.813 26.1048 111.396 26.3378 109.843 26.3378C107.219 26.3378 105.238 25.8098 103.903 24.7537C102.575 23.6899 101.954 22.2805 102.039 20.5256L107.584 20.3858C107.607 21.0458 107.828 21.5428 108.247 21.8767C108.675 22.2028 109.253 22.3737 109.983 22.3892C110.783 22.4047 111.474 22.2378 112.056 21.8884C112.639 21.5389 112.965 21.108 113.035 20.5955C113.081 20.2616 112.969 20.0014 112.697 19.8151C112.433 19.6287 111.94 19.4617 111.218 19.3142L108.189 18.7202C106.45 18.3863 105.192 17.7573 104.415 16.8332C103.647 15.9014 103.383 14.7134 103.623 13.269C103.825 12.1198 104.299 11.1453 105.044 10.3455C105.798 9.53788 106.78 8.92443 107.991 8.50511C109.21 8.0858 110.6 7.87614 112.161 7.87614C114.661 7.87614 116.548 8.38475 117.822 9.40199C119.103 10.4115 119.666 11.8014 119.511 13.5719ZM128.162 15.7966L126.462 26H120.766L124.726 2.14545H130.235L128.721 11.3938H128.919C129.494 10.2911 130.294 9.42917 131.319 8.80795C132.344 8.18674 133.532 7.87614 134.883 7.87614C136.125 7.87614 137.166 8.15568 138.004 8.71477C138.843 9.2661 139.437 10.0465 139.787 11.056C140.136 12.0654 140.198 13.2457 139.973 14.5969L138.063 26H132.367L134.091 15.7151C134.246 14.7211 134.118 13.9446 133.706 13.3855C133.295 12.8264 132.635 12.5469 131.726 12.5469C131.128 12.5469 130.577 12.6789 130.072 12.9429C129.575 13.1991 129.16 13.568 128.826 14.0494C128.492 14.5309 128.271 15.1133 128.162 15.7966ZM141.583 26L144.565 8.10909H150.261L147.279 26H141.583ZM147.815 6.0125C147.007 6.0125 146.351 5.7446 145.846 5.20881C145.342 4.67301 145.144 4.03239 145.252 3.28693C145.361 2.53371 145.741 1.89309 146.394 1.36506C147.046 0.837027 147.772 0.573012 148.572 0.573012C149.379 0.573012 150.028 0.837027 150.517 1.36506C151.014 1.89309 151.208 2.53371 151.099 3.28693C151.006 4.03239 150.634 4.67301 149.981 5.20881C149.337 5.7446 148.615 6.0125 147.815 6.0125ZM159.244 26.3378C157.357 26.3378 155.8 25.9495 154.573 25.173C153.354 24.3965 152.496 23.3133 151.999 21.9233C151.502 20.5333 151.405 18.9182 151.708 17.0778C152.011 15.2453 152.636 13.6379 153.583 12.2557C154.531 10.8735 155.742 9.79801 157.217 9.02926C158.693 8.26051 160.366 7.87614 162.238 7.87614C164.117 7.87614 165.666 8.26439 166.885 9.04091C168.112 9.81742 168.974 10.9007 169.471 12.2906C169.976 13.6806 170.076 15.2996 169.774 17.1477C169.471 18.9803 168.842 20.5877 167.887 21.9699C166.932 23.3443 165.72 24.4159 164.253 25.1847C162.785 25.9534 161.116 26.3378 159.244 26.3378ZM159.885 22.0398C160.584 22.0398 161.209 21.8301 161.76 21.4108C162.319 20.9915 162.789 20.4052 163.169 19.652C163.55 18.8988 163.822 18.0252 163.985 17.0313C164.148 16.0528 164.163 15.1948 164.031 14.4571C163.907 13.7116 163.643 13.1331 163.239 12.7216C162.835 12.3023 162.288 12.0926 161.597 12.0926C160.898 12.0926 160.269 12.3062 159.71 12.7332C159.151 13.1526 158.681 13.7388 158.301 14.492C157.928 15.2375 157.66 16.1111 157.497 17.1128C157.334 18.0912 157.314 18.9492 157.439 19.6869C157.563 20.4246 157.831 21.0031 158.242 21.4224C158.654 21.834 159.201 22.0398 159.885 22.0398ZM178.643 15.7966L176.943 26H171.247L174.229 8.10909H179.645L179.109 11.3938H179.307C179.866 10.2989 180.678 9.44081 181.742 8.8196C182.806 8.19063 184.001 7.87614 185.329 7.87614C186.579 7.87614 187.624 8.15568 188.462 8.71477C189.301 9.27386 189.895 10.0581 190.245 11.0676C190.594 12.0693 190.652 13.2457 190.419 14.5969L188.509 26H182.813L184.526 15.7151C184.696 14.7289 184.576 13.9562 184.164 13.3972C183.761 12.8303 183.101 12.5469 182.184 12.5469C181.586 12.5469 181.039 12.6789 180.542 12.9429C180.053 13.1991 179.641 13.568 179.307 14.0494C178.981 14.5309 178.76 15.1133 178.643 15.7966Z" fill="#0D3356"/>
</svg>
