<svg width="16" height="17" viewBox="0 0 16 17" fill="none" xmlns="http://www.w3.org/2000/svg">
<path d="M7.65334 2.83266C7.68153 2.76388 7.72955 2.70505 7.79128 2.66364C7.85302 2.62222 7.92567 2.60011 8 2.60011C8.07434 2.60011 8.14699 2.62222 8.20872 2.66364C8.27046 2.70505 8.31847 2.76388 8.34667 2.83266L9.76334 6.24C9.78986 6.30375 9.83345 6.35896 9.88932 6.39954C9.94519 6.44012 10.0112 6.4645 10.08 6.47L13.7587 6.76466C14.0913 6.79133 14.226 7.20666 13.9727 7.42333L11.17 9.82466C11.1176 9.86946 11.0786 9.9278 11.0572 9.9933C11.0358 10.0588 11.0329 10.1289 11.0487 10.196L11.9053 13.786C11.9226 13.858 11.918 13.9335 11.8924 14.003C11.8667 14.0725 11.821 14.1328 11.7611 14.1763C11.7012 14.2198 11.6297 14.2446 11.5557 14.2475C11.4817 14.2504 11.4085 14.2313 11.3453 14.1927L8.19534 12.2693C8.13649 12.2335 8.06891 12.2145 8 12.2145C7.93109 12.2145 7.86351 12.2335 7.80467 12.2693L4.65467 14.1933C4.59151 14.232 4.51831 14.2511 4.44431 14.2481C4.37031 14.2452 4.29884 14.2205 4.23892 14.1769C4.17899 14.1334 4.13331 14.0731 4.10764 14.0037C4.08197 13.9342 4.07745 13.8587 4.09467 13.7867L4.95134 10.196C4.96722 10.1289 4.9643 10.0588 4.9429 9.99326C4.92149 9.92775 4.88243 9.86941 4.83 9.82466L2.02734 7.42333C1.97121 7.37507 1.93061 7.31129 1.91064 7.24002C1.89066 7.16875 1.89221 7.09316 1.91508 7.02276C1.93795 6.95236 1.98113 6.8903 2.03918 6.84438C2.09723 6.79845 2.16757 6.77072 2.24134 6.76466L5.92 6.47C5.98884 6.4645 6.05482 6.44012 6.11069 6.39954C6.16656 6.35896 6.21015 6.30375 6.23667 6.24L7.65334 2.83266Z" stroke="#D48D3B" stroke-width="1.5" stroke-linecap="round" stroke-linejoin="round"/>
</svg>
